<svg width="676" height="301" viewBox="0 0 676 301" fill="none" xmlns="http://www.w3.org/2000/svg">
<mask id="path-1-outside-1_2946_1781" maskUnits="userSpaceOnUse" x="15" y="53" width="651" height="181" fill="black">
<rect fill="white" x="15" y="53" width="651" height="181"/>
<path d="M112.976 56C131.809 56 146.059 60.9167 155.726 70.75C165.559 80.4167 170.476 94.6667 170.476 113.5V173.5C170.476 192.333 165.559 206.667 155.726 216.5C146.059 226.167 131.809 231 112.976 231H15.4756V56H112.976ZM125.476 113.5C125.476 98.5 117.976 91 102.976 91H60.4756V196H102.976C117.976 196 125.476 188.5 125.476 173.5V113.5ZM334.157 231H195.407V56H334.157V91H240.407V124.75H314.157V159.75H240.407V196H334.157V231ZM399.099 196H490.349V231H354.099V56H399.099V196ZM620.407 103.5C620.407 93.5 615.407 88.5 605.407 88.5H562.907C552.907 88.5 547.907 93.5 547.907 103.5V183.5C547.907 193.5 552.907 198.5 562.907 198.5H605.407C615.407 198.5 620.407 193.5 620.407 183.5V103.5ZM665.407 183.5C665.407 201 661.407 213.75 653.407 221.75C645.574 229.583 632.907 233.5 615.407 233.5H552.907C535.407 233.5 522.657 229.583 514.657 221.75C506.824 213.75 502.907 201 502.907 183.5V103.5C502.907 86 506.824 73.3333 514.657 65.5C522.657 57.5 535.407 53.5 552.907 53.5H615.407C632.907 53.5 645.574 57.5 653.407 65.5C661.407 73.3333 665.407 86 665.407 103.5V183.5Z"/>
</mask>
<path d="M155.726 70.75L155.654 70.8201L155.655 70.8213L155.726 70.75ZM155.726 216.5L155.796 216.571L155.796 216.571L155.726 216.5ZM15.4756 231H15.3756V231.1H15.4756V231ZM15.4756 56V55.9H15.3756V56H15.4756ZM60.4756 91V90.9H60.3756V91H60.4756ZM60.4756 196H60.3756V196.1H60.4756V196ZM112.976 56V56.1C131.792 56.1 146.012 61.012 155.654 70.8201L155.726 70.75L155.797 70.6799C146.105 60.8213 131.826 55.9 112.976 55.9V56ZM155.726 70.75L155.655 70.8213C165.464 80.4631 170.376 94.6834 170.376 113.5H170.476H170.576C170.576 94.6499 165.654 80.3702 155.796 70.6787L155.726 70.75ZM170.476 113.5H170.376V173.5H170.476H170.576V113.5H170.476ZM170.476 173.5H170.376C170.376 192.316 165.464 206.621 155.655 216.429L155.726 216.5L155.796 216.571C165.654 206.713 170.576 192.35 170.576 173.5H170.476ZM155.726 216.5L155.655 216.429C146.013 226.071 131.793 230.9 112.976 230.9V231V231.1C131.825 231.1 146.105 226.262 155.796 216.571L155.726 216.5ZM112.976 231V230.9H15.4756V231V231.1H112.976V231ZM15.4756 231H15.5756V56H15.4756H15.3756V231H15.4756ZM15.4756 56V56.1H112.976V56V55.9H15.4756V56ZM125.476 113.5H125.576C125.576 105.985 123.697 100.33 119.921 96.5543C116.146 92.7789 110.491 90.9 102.976 90.9V91V91.1C110.46 91.1 116.055 92.9711 119.78 96.6957C123.505 100.42 125.376 106.015 125.376 113.5H125.476ZM102.976 91V90.9H60.4756V91V91.1H102.976V91ZM60.4756 91H60.3756V196H60.4756H60.5756V91H60.4756ZM60.4756 196V196.1H102.976V196V195.9H60.4756V196ZM102.976 196V196.1C110.491 196.1 116.146 194.221 119.921 190.446C123.697 186.67 125.576 181.015 125.576 173.5H125.476H125.376C125.376 180.985 123.505 186.58 119.78 190.304C116.055 194.029 110.46 195.9 102.976 195.9V196ZM125.476 173.5H125.576V113.5H125.476H125.376V173.5H125.476ZM334.157 231V231.1H334.257V231H334.157ZM195.407 231H195.307V231.1H195.407V231ZM195.407 56V55.9H195.307V56H195.407ZM334.157 56H334.257V55.9H334.157V56ZM334.157 91V91.1H334.257V91H334.157ZM240.407 91V90.9H240.307V91H240.407ZM240.407 124.75H240.307V124.85H240.407V124.75ZM314.157 124.75H314.257V124.65H314.157V124.75ZM314.157 159.75V159.85H314.257V159.75H314.157ZM240.407 159.75V159.65H240.307V159.75H240.407ZM240.407 196H240.307V196.1H240.407V196ZM334.157 196H334.257V195.9H334.157V196ZM334.157 231V230.9H195.407V231V231.1H334.157V231ZM195.407 231H195.507V56H195.407H195.307V231H195.407ZM195.407 56V56.1H334.157V56V55.9H195.407V56ZM334.157 56H334.057V91H334.157H334.257V56H334.157ZM334.157 91V90.9H240.407V91V91.1H334.157V91ZM240.407 91H240.307V124.75H240.407H240.507V91H240.407ZM240.407 124.75V124.85H314.157V124.75V124.65H240.407V124.75ZM314.157 124.75H314.057V159.75H314.157H314.257V124.75H314.157ZM314.157 159.75V159.65H240.407V159.75V159.85H314.157V159.75ZM240.407 159.75H240.307V196H240.407H240.507V159.75H240.407ZM240.407 196V196.1H334.157V196V195.9H240.407V196ZM334.157 196H334.057V231H334.157H334.257V196H334.157ZM399.099 196H398.999V196.1H399.099V196ZM490.349 196H490.449V195.9H490.349V196ZM490.349 231V231.1H490.449V231H490.349ZM354.099 231H353.999V231.1H354.099V231ZM354.099 56V55.9H353.999V56H354.099ZM399.099 56H399.199V55.9H399.099V56ZM399.099 196V196.1H490.349V196V195.9H399.099V196ZM490.349 196H490.249V231H490.349H490.449V196H490.349ZM490.349 231V230.9H354.099V231V231.1H490.349V231ZM354.099 231H354.199V56H354.099H353.999V231H354.099ZM354.099 56V56.1H399.099V56V55.9H354.099V56ZM399.099 56H398.999V196H399.099H399.199V56H399.099ZM653.407 221.75L653.337 221.679L653.337 221.679L653.407 221.75ZM514.657 221.75L514.586 221.82L514.587 221.821L514.657 221.75ZM514.657 65.5L514.587 65.4293L514.587 65.4293L514.657 65.5ZM653.407 65.5L653.336 65.57L653.337 65.5714L653.407 65.5ZM620.407 103.5H620.507C620.507 98.4846 619.253 94.7046 616.728 92.1793C614.203 89.6539 610.423 88.4 605.407 88.4V88.5V88.6C610.392 88.6 614.112 89.8461 616.587 92.3207C619.061 94.7953 620.307 98.5154 620.307 103.5H620.407ZM605.407 88.5V88.4H562.907V88.5V88.6H605.407V88.5ZM562.907 88.5V88.4C557.892 88.4 554.112 89.6539 551.587 92.1793C549.061 94.7046 547.807 98.4846 547.807 103.5H547.907H548.007C548.007 98.5154 549.253 94.7953 551.728 92.3207C554.203 89.8461 557.923 88.6 562.907 88.6V88.5ZM547.907 103.5H547.807V183.5H547.907H548.007V103.5H547.907ZM547.907 183.5H547.807C547.807 188.515 549.061 192.295 551.587 194.821C554.112 197.346 557.892 198.6 562.907 198.6V198.5V198.4C557.923 198.4 554.203 197.154 551.728 194.679C549.253 192.205 548.007 188.485 548.007 183.5H547.907ZM562.907 198.5V198.6H605.407V198.5V198.4H562.907V198.5ZM605.407 198.5V198.6C610.423 198.6 614.203 197.346 616.728 194.821C619.253 192.295 620.507 188.515 620.507 183.5H620.407H620.307C620.307 188.485 619.061 192.205 616.587 194.679C614.112 197.154 610.392 198.4 605.407 198.4V198.5ZM620.407 183.5H620.507V103.5H620.407H620.307V183.5H620.407ZM665.407 183.5H665.307C665.307 200.988 661.31 213.706 653.337 221.679L653.407 221.75L653.478 221.821C661.505 213.794 665.507 201.012 665.507 183.5H665.407ZM653.407 221.75L653.337 221.679C645.53 229.485 632.896 233.4 615.407 233.4V233.5V233.6C632.919 233.6 645.617 229.681 653.478 221.821L653.407 221.75ZM615.407 233.5V233.4H552.907V233.5V233.6H615.407V233.5ZM552.907 233.5V233.4C535.419 233.4 522.7 229.486 514.727 221.679L514.657 221.75L514.587 221.821C522.614 229.681 535.395 233.6 552.907 233.6V233.5ZM514.657 221.75L514.729 221.68C506.922 213.707 503.007 200.988 503.007 183.5H502.907H502.807C502.807 201.012 506.726 213.793 514.586 221.82L514.657 221.75ZM502.907 183.5H503.007V103.5H502.907H502.807V183.5H502.907ZM502.907 103.5H503.007C503.007 86.0116 506.922 73.3769 514.728 65.5707L514.657 65.5L514.587 65.4293C506.726 73.2898 502.807 85.9883 502.807 103.5H502.907ZM514.657 65.5L514.728 65.5707C522.701 57.5975 535.42 53.6 552.907 53.6V53.5V53.4C535.395 53.4 522.613 57.4025 514.587 65.4293L514.657 65.5ZM552.907 53.5V53.6H615.407V53.5V53.4H552.907V53.5ZM615.407 53.5V53.6C632.895 53.6 645.53 57.5976 653.336 65.5699L653.407 65.5L653.479 65.43C645.618 57.4024 632.919 53.4 615.407 53.4V53.5ZM653.407 65.5L653.337 65.5714C661.31 73.3777 665.307 86.0121 665.307 103.5H665.407H665.507C665.507 85.9879 661.505 73.289 653.477 65.4285L653.407 65.5ZM665.407 103.5H665.307V183.5H665.407H665.507V103.5H665.407Z" fill="black" mask="url(#path-1-outside-1_2946_1781)"/>
</svg>
